<svg width="96" height="96" viewBox="0 0 96 96" fill="none" xmlns="http://www.w3.org/2000/svg">
<circle cx="48.64" cy="53.92" r="10" fill="#363636" stroke="#363636" stroke-width="4"/>
<circle cx="25" cy="82" r="6" fill="#363636" stroke="#363636" stroke-width="4"/>
<circle cx="69" cy="74" r="4" fill="#363636" stroke="#363636" stroke-width="4"/>
<path d="M75 18.24C75 20.6563 73.1359 22.48 71 22.48C68.8641 22.48 67 20.6563 67 18.24C67 15.8237 68.8641 14 71 14C73.1359 14 75 15.8237 75 18.24Z" fill="#363636" stroke="#363636" stroke-width="4"/>
<circle cx="85" cy="46" r="7" fill="#363636" stroke="#363636" stroke-width="4"/>
<circle cx="17" cy="31" r="8" fill="#363636" stroke="#363636" stroke-width="4"/>
<line x1="23.1234" y1="35.3453" x2="40.5634" y2="47.1853" stroke="#363636" stroke-width="4"/>
<line x1="29.4074" y1="78.4302" x2="42.0474" y2="61.7902" stroke="#363636" stroke-width="4"/>
<line x1="66.605" y1="72.1132" x2="54.605" y2="60.4332" stroke="#363636" stroke-width="4"/>
<line x1="69.66" y1="20.1155" x2="52.86" y2="45.1155" stroke="#363636" stroke-width="4"/>
<line x1="72.2721" y1="21.2834" x2="82.2118" y2="39.3367" stroke="#363636" stroke-width="4"/>
<line x1="80.7719" y1="52.9276" x2="71.7719" y2="70.1202" stroke="#363636" stroke-width="4"/>
</svg>
